<svg width="40" height="40" viewBox="0 0 40 40" fill="none" xmlns="http://www.w3.org/2000/svg">
<g clip-path="url(#clip0_8_762)">
<path d="M20 40C31.0457 40 40 31.0457 40 20C40 8.9543 31.0457 0 20 0C8.9543 0 0 8.9543 0 20C0 31.0457 8.9543 40 20 40Z" fill="#F3F4F7"/>
<path d="M10 20C11.7574 20 16 20 16 20H10ZM30.5 20L26.5 24L30.5 20ZM30.5 20L26.5 16L30.5 20ZM30.5 20H24H30.5ZM20 12V20V28" fill="#259DD6"/>
<path d="M10 20C11.7574 20 16 20 16 20M30.5 20L26.5 24M30.5 20L26.5 16M30.5 20H24M20 12V20V28" stroke="#9548BD" stroke-width="2.5" stroke-linecap="round" stroke-linejoin="round"/>
</g>
<defs>
<clipPath id="clip0_8_762">
<rect width="40" height="40" fill="white"/>
</clipPath>
</defs>
</svg>
