<svg width="40" height="40" viewBox="0 0 40 40" fill="none" xmlns="http://www.w3.org/2000/svg">
<g clip-path="url(#clip0_8_766)">
<path d="M20 40C31.0457 40 40 31.0457 40 20C40 8.9543 31.0457 0 20 0C8.9543 0 0 8.9543 0 20C0 31.0457 8.9543 40 20 40Z" fill="#F3F4F7"/>
<path d="M20 12V20.0008V12ZM20 28.0016V20.0008V28.0016ZM20 20.0008L12 20L20 20.0008ZM20 20.0008H28H20Z" fill="#259DD6"/>
<path d="M20 12V20.0008M20 20.0008V28.0016M20 20.0008L12 20M20 20.0008H28" stroke="#D713AD" stroke-width="2.5" stroke-linecap="round" stroke-linejoin="round"/>
</g>
<defs>
<clipPath id="clip0_8_766">
<rect width="40" height="40" fill="white"/>
</clipPath>
</defs>
</svg>
