<svg width="40" height="40" viewBox="0 0 40 40" fill="none" xmlns="http://www.w3.org/2000/svg">
<g clip-path="url(#clip0_8_774)">
<path d="M20 40C31.0457 40 40 31.0457 40 20C40 8.9543 31.0457 0 20 0C8.9543 0 0 8.9543 0 20C0 31.0457 8.9543 40 20 40Z" fill="#F3F4F7"/>
<path d="M25.4615 14.7573C23.7065 14.6673 22.1465 15.4173 21.1265 16.6548C21.1265 16.6548 19.979 18.1398 19.979 18.1323C19.979 18.1323 18.5315 20.0298 18.539 20.0298L17.294 21.6648L17.1965 21.7923C16.484 22.7448 15.224 23.2773 13.8965 22.8873C13.3996 22.7372 12.9512 22.4584 12.5969 22.079C12.2426 21.6996 11.9949 21.2333 11.879 20.7273C11.7756 20.289 11.7726 19.8331 11.8702 19.3935C11.9678 18.9539 12.1634 18.542 12.4425 18.1886C12.7216 17.8352 13.0769 17.5495 13.482 17.3527C13.887 17.156 14.3312 17.0533 14.7815 17.0523C15.689 17.0523 16.364 17.4348 16.829 17.8398C17.324 18.2748 18.0815 18.2073 18.4865 17.6823C18.839 17.2248 18.794 16.5648 18.374 16.1748C16.004 13.9998 11.519 14.4948 10.0865 17.5173C8.22657 21.4398 11.0615 25.3098 14.7815 25.3098C16.4165 25.3098 17.879 24.5823 18.8465 23.4123L19.169 22.9923C19.169 22.9923 19.9865 21.9198 19.9865 21.9273C19.9865 21.9273 21.434 20.0298 21.4265 20.0298L22.694 18.3723L22.784 18.2598C23.4365 17.3748 24.5615 16.8723 25.799 17.1123C26.894 17.3298 27.8015 18.1848 28.0715 19.2723C28.5665 21.2448 27.0815 23.0223 25.184 23.0223C24.2915 23.0223 23.6165 22.6398 23.1515 22.2273C23.0341 22.1243 22.8968 22.0466 22.7481 21.9989C22.5993 21.9512 22.4424 21.9345 22.287 21.95C22.1316 21.9655 21.981 22.0127 21.8446 22.0888C21.7082 22.1649 21.5889 22.2682 21.494 22.3923C21.1265 22.8723 21.194 23.5398 21.644 23.9448C22.3415 24.5673 23.534 25.3248 25.184 25.3248C28.334 25.3248 30.8465 22.5573 30.419 19.3248C30.089 16.8348 27.959 14.8848 25.4615 14.7573Z" fill="#259DD6"/>
</g>
<defs>
<clipPath id="clip0_8_774">
<rect width="40" height="40" fill="white"/>
</clipPath>
</defs>
</svg>
